/* XPM */
static char *graph_xpm[] = {
/* columns rows colors chars-per-pixel */
"48 48 5 1",
" 	c None",
".	c #000000",
"X	c #90EE90",
"o	c #EE00EE",
"O	c #FFF68F",
"                                                ",
"                                                ",
"   .                                            ",
"   .                                            ",
"   .                                            ",
"   .                                            ",
"   .     ........                               ",
"   .     .XXXXXX.                               ",
"   .     .XXXXXX.                ........       ",
"   .     .XXXXXX.                .XXXXXX.       ",
"   .     .XXXXXX.                .XXXXXX.       ",
"   .     .XXXXXX.                .XXXXXX.       ",
"   .     .XXXXXX.                .XXXXXX.       ",
"   .     ........    ........    .XXXXXX.       ",
"   .     .oooooo.    .XXXXXX.    .XXXXXX.       ",
"   .     .oooooo.    .XXXXXX.    .XXXXXX.       ",
"   .     .oooooo.    .XXXXXX.    .XXXXXX.       ",
"   .     .oooooo.    .XXXXXX.    .XXXXXX.       ",
"   .     .oooooo.    .XXXXXX.    .XXXXXX.       ",
"   .     .oooooo.    ........    ........       ",
"   .     .oooooo.    .oooooo.    .oooooo.       ",
"   .     .oooooo.    .oooooo.    .oooooo.       ",
"   .     .oooooo.    .oooooo.    .oooooo.       ",
"   .     .oooooo.    .oooooo.    .oooooo.       ",
"   .     .oooooo.    .oooooo.    .oooooo.       ",
"   .     .oooooo.    .oooooo.    .oooooo.       ",
"   .     .oooooo.    .oooooo.    .oooooo.       ",
"   .     .oooooo.    ........    .oooooo.       ",
"   .     .oooooo.    .OOOOOO.    .oooooo.       ",
"   .     ........    .OOOOOO.    .oooooo.       ",
"   .     .OOOOOO.    .OOOOOO.    ........       ",
"   .     .OOOOOO.    .OOOOOO.    .OOOOOO.       ",
"   .     .OOOOOO.    .OOOOOO.    .OOOOOO.       ",
"   .     .OOOOOO.    .OOOOOO.    .OOOOOO.       ",
"   .     .OOOOOO.    .OOOOOO.    .OOOOOO.       ",
"   .     .OOOOOO.    .OOOOOO.    .OOOOOO.       ",
"   .     .OOOOOO.    .OOOOOO.    .OOOOOO.       ",
"   .     .OOOOOO.    .OOOOOO.    .OOOOOO.       ",
"   .     .OOOOOO.    .OOOOOO.    .OOOOOO.       ",
"   .     .OOOOOO.    .OOOOOO.    .OOOOOO.       ",
"   .     .OOOOOO.    .OOOOOO.    .OOOOOO.       ",
"   .     .OOOOOO.    .OOOOOO.    .OOOOOO.       ",
"   .     .OOOOOO.    .OOOOOO.    .OOOOOO.       ",
"   ...........................................  ",
"                                                ",
"                                                ",
"                                                ",
"                                                "];
