/* XPM */
static char *book_green[] = {
/* columns rows colors chars-per-pixel */
"24 24 174 2 ",
"   c black",
".  c #000100",
"X  c #010201",
"o  c #020302",
"O  c #030503",
"+  c #050805",
"@  c #090F09",
"#  c #0B120B",
"$  c #111C11",
"%  c #121E12",
"&  c #131F13",
"*  c #142014",
"=  c #152215",
"-  c #162316",
";  c #182818",
":  c #192A19",
">  c #1A2B1A",
",  c #1B2E1B",
"<  c #1D301D",
"1  c #1F331F",
"2  c #213621",
"3  c gray20",
"4  c #274127",
"5  c #284228",
"6  c #294429",
"7  c #2C492C",
"8  c #2E4C2E",
"9  c #2F4C2F",
"0  c #2F4E2F",
"q  c #305030",
"w  c #315131",
"e  c #335433",
"r  c #345634",
"t  c #385B38",
"y  c #385D38",
"u  c #395D39",
"i  c #395E39",
"p  c #3A603A",
"a  c #3B613B",
"s  c #3C633C",
"d  c #3D643D",
"f  c #3D653D",
"g  c #3E663E",
"h  c #3F683F",
"j  c #484848",
"k  c #4B4B4B",
"l  c #565656",
"z  c #585858",
"x  c gray37",
"c  c #5F5F5F",
"v  c #406940",
"b  c #406A40",
"n  c #416A41",
"m  c #416B41",
"M  c #426D42",
"N  c #436E43",
"B  c #436F43",
"V  c #457045",
"C  c #457245",
"Z  c #467346",
"A  c #467446",
"S  c #477547",
"D  c #487648",
"F  c #487748",
"G  c #497849",
"H  c #4A7A4A",
"J  c #4B7C4B",
"K  c #4D784D",
"L  c #4C7A4C",
"P  c #4C7D4C",
"I  c #4D7D4D",
"U  c #4C7E4C",
"Y  c #4D7F4D",
"T  c gray39",
"R  c #676767",
"E  c #6D6D6D",
"W  c gray43",
"Q  c #747474",
"!  c gray47",
"~  c gray48",
"^  c #7E7E7E",
"/  c #4E814E",
"(  c #4F804F",
")  c #4F824F",
"_  c #4F834F",
"`  c #518051",
"'  c #518351",
"]  c #508450",
"[  c #518651",
"{  c #528752",
"}  c #528852",
"|  c #538A53",
" . c #548B54",
".. c #558C55",
"X. c #568D56",
"o. c #568E56",
"O. c #578F57",
"+. c #589158",
"@. c #599259",
"#. c #599359",
"$. c #5B965B",
"%. c #5C975C",
"&. c #5C985C",
"*. c #5E9B5E",
"=. c #5F9D5F",
"-. c #65A165",
";. c #68A368",
":. c #6DA66D",
">. c #6EA66E",
",. c #6FA76F",
"<. c #74A774",
"1. c #71A871",
"2. c #72A972",
"3. c #73AA73",
"4. c #74AB74",
"5. c #77AC77",
"6. c #78AD78",
"7. c #79AD79",
"8. c #7DB07D",
"9. c #7EB07E",
"0. c #818181",
"q. c gray52",
"w. c #909090",
"e. c #959595",
"r. c gray59",
"t. c #979797",
"y. c #84B484",
"u. c #88B688",
"i. c #8BB88B",
"p. c #8CB98C",
"a. c #8DB98D",
"s. c #90BB90",
"d. c #93BD93",
"f. c #95BE95",
"g. c #96BF96",
"h. c #97BF97",
"j. c gray65",
"k. c gray66",
"l. c #AFAFAF",
"z. c #B1B1B1",
"x. c gray71",
"c. c gray73",
"v. c #98C098",
"b. c #9FC49F",
"n. c #A3C7A3",
"m. c #A5C8A5",
"M. c #A8CAA8",
"N. c #ACCCAC",
"B. c #BAD5BA",
"V. c gray76",
"C. c #C3C3C3",
"Z. c #C5C5C5",
"A. c #CBCBCB",
"S. c #CECECE",
"D. c #D2D2D2",
"F. c #DADADA",
"G. c gray86",
"H. c gainsboro",
"J. c gray87",
"K. c #DFDFDF",
"L. c gray88",
"P. c #E1E1E1",
"I. c #E2E2E2",
"U. c #E4E4E4",
"Y. c gray90",
"T. c #E6E6E6",
"R. c #EAEAEA",
"E. c gray92",
"W. c #EFEFEF",
"Q. c gray95",
"!. c #F3F3F3",
"~. c #F9F9F9",
"^. c #FDFDFD",
"/. c None",
/* pixels */
"/./././././././././././././././././././././././.",
"/././././././.                            /././.",
"/./././././.$ h.7.:.-.*.+.| ] _ _ _ _  .m % /./.",
"/././././.  :.p.1.O.] H V g i i s g h g w ; /./.",
"/././././.@ h.9.$. ._ S m p p p p p h e 2 /././.",
"/./././.  _ h.1.O._ H V g p p p p g h q 7   /./.",
"/./././.  h.9.$. ._ H m g p p a p m w ; 0.5 /./.",
"/././.  _ a.1.+.] H V m i p p p a m 9 1 k w././.",
"/././.  v.9.$.O.] H B g p p p p h r : l R 3 /./.",
"/./.  O.p.1.+.] J S h p p p p p m w 1 k <.  /./.",
"/./.  h.y.=.O._ H B g p p p p g i , R W r   /./.",
"/.  O.s.:.$.O._ F m s p p p p m 9 2 z 1.#   /./.",
"/.  <.u.;.+. .J V m p p p p p i , k Q V   /././.",
"  +.B.N.n.b.v.s.p.1.,.,.,.,.-._ 5 x 5.@   /././.",
"O M.9 6 6 6 6 6 5 5 6 6 6 5 5 5 T ~ H   /./././.",
"# 5.w c Q r.z.l.Z.S.c.V.V.A.D.F.e.:.%   /./././.",
"# $.m ^ I.U.I.K.L.Q.^.!.!.!.k.x.E D   /././././.",
", O.*.] V H.R.W.W.T.H.I.L.L.I.~ <.&   /././././.",
"/.  + t K ] _  .t.H.U.E.~.~.q.j.a.  /./././././.",
"/././.        t m ] ] ] m.L.E.i.=   /./././././.",
"/././././././.        9 p D I L O /././././././.",
"/././././././././././.          /./././././././.",
"/./././././././././././././././././././././././.",
"/./././././././././././././././././././././././."
};
