/* XPM */
static char *book_open[] = {
/* columns rows colors chars-per-pixel */
"24 24 175 2 ",
"   c black",
".  c #040506",
"X  c #0A0D10",
"o  c #0B0F12",
"O  c #0C0F13",
"+  c #0D1115",
"@  c #0E1317",
"#  c #0F1418",
"$  c #11171C",
"%  c #141A20",
"&  c #151C22",
"*  c #171F26",
"=  c #21272E",
"-  c #252D35",
";  c #242F3A",
":  c #29323B",
">  c #2B343C",
",  c #2C343D",
"<  c gray20",
"1  c #313E4B",
"2  c #32414F",
"3  c #354453",
"4  c #394957",
"5  c #404142",
"6  c #414F5D",
"7  c #4F5E6A",
"8  c #4A5D70",
"9  c #4B5F71",
"0  c #4F5F70",
"q  c #4C5F72",
"w  c #4A5F74",
"e  c #4D6074",
"r  c #516172",
"t  c #566779",
"y  c #5C6C7C",
"u  c #686B6C",
"i  c #696D71",
"p  c #777879",
"a  c #74797E",
"s  c #5E7184",
"d  c #717D88",
"f  c #737F8A",
"g  c #768592",
"h  c #768594",
"j  c #7A8695",
"k  c #798895",
"l  c #7F8D9A",
"z  c #828F97",
"x  c #8A8E92",
"c  c #899096",
"v  c #82909E",
"b  c #85929F",
"n  c #8E949A",
"m  c #8F969D",
"M  c #929395",
"N  c #939699",
"B  c #97999B",
"V  c #9D9F9F",
"C  c #8693A0",
"Z  c #8C98A2",
"A  c #8D99A2",
"S  c #939BA3",
"D  c #979EA4",
"F  c #979FA7",
"G  c #9E9FA0",
"H  c #9B9FA4",
"J  c #919EAB",
"K  c #959FAA",
"L  c #9AA3AC",
"P  c #9DA6AE",
"I  c #9FABB6",
"U  c #A1A3A4",
"Y  c #A4A7A9",
"T  c #A4A7AB",
"R  c #A6A8AB",
"E  c gray66",
"W  c gray67",
"Q  c #AEB2B6",
"!  c #ADB5BC",
"~  c #B1B1B1",
"^  c #B4B4B4",
"/  c #B5B5B6",
"(  c #B5B6B7",
")  c #B7B7B7",
"_  c #B2B8BE",
"`  c gray72",
"'  c #BBBBBB",
"]  c #BCBCBC",
"[  c gray74",
"{  c gray",
"}  c gray75",
"|  c #B3BDC6",
" . c #BBBFC4",
".. c #BFC7D0",
"X. c #C0C0C0",
"o. c #C1C1C1",
"O. c gray76",
"+. c #C3C3C3",
"@. c gray77",
"#. c #C6C6C6",
"$. c #C6C7C7",
"%. c #C3C6CA",
"&. c #C8C8C8",
"*. c gray79",
"=. c #C8C9CA",
"-. c #CACACA",
";. c #CBCBCB",
":. c #CDCDCD",
">. c #CECECE",
",. c #D0D0D0",
"<. c gray82",
"1. c #D2D2D2",
"2. c LightGray",
"3. c #D1D2D4",
"4. c #D5D5D5",
"5. c #D5D7D8",
"6. c #D1D7DD",
"7. c #D7D8D8",
"8. c gray85",
"9. c #D8D8DA",
"0. c #DADADA",
"q. c gray86",
"w. c gray87",
"e. c #D9DEE3",
"r. c #DEE1E3",
"t. c #E0E2E3",
"y. c gray89",
"u. c gray90",
"i. c #E4E5E6",
"p. c #E7E7E7",
"a. c #E6E7E8",
"s. c #E7E8E8",
"d. c #E7E9E9",
"f. c gray91",
"g. c #E9EAEB",
"h. c #EAEAEA",
"j. c gray92",
"k. c #EAEBEC",
"l. c #EBECED",
"z. c #E8ECEE",
"x. c #ECEEEE",
"c. c #EEEFEF",
"v. c #EEEFF1",
"b. c #EFF0F0",
"n. c gray94",
"m. c #F1F1F1",
"M. c #F0F1F2",
"N. c #F1F2F3",
"B. c #F2F3F3",
"V. c #F3F3F3",
"C. c #F2F3F4",
"Z. c #F3F4F4",
"A. c #F4F5F5",
"S. c gray96",
"D. c #F5F5F7",
"F. c #F5F6F6",
"G. c #F6F6F7",
"H. c #F6F7F7",
"J. c #F5F6F8",
"K. c #F6F7F8",
"L. c #F7F7F9",
"P. c #F7F8F9",
"I. c #F8F8F8",
"U. c #F8F9FA",
"Y. c #F9F9FA",
"T. c #F9FAFB",
"R. c #FAFAFB",
"E. c #FAFBFB",
"W. c #FBFBFB",
"Q. c #FAFCFC",
"!. c #FBFCFC",
"~. c #FCFDFD",
"^. c #FDFEFE",
"/. c gray100",
"(. c None",
/* pixels */
"(.(.(.(.(.(.(.  . (.(.(.(.(.(.(.(.(.(.(.(.(.(.(.",
"(.(.(.(.(.(.o K %.  (.(.(.(.(.(.(.(.(.(.(.(.(.(.",
"(.(.(.(.(.o v m.5.X (.(.(.(.(.(.(.(.(.(.(.(.(.(.",
"(.(.(.(.$ C m.w.4.H   (.(.(.(.(.(.(.(.(.(.(.(.(.",
"(.(.(.@ b b.8.-.$.=.O (.(.(.(.(.(.(.(.(.(.(.(.(.",
"(.(.% k m.4.-.1.+.>.a   (.(.(.(.(.(.(.(.(.(.(.(.",
"(.* l b.8.4.+.>.+.-.~ @ (.(.(.(.(.(.(.(.(.(.(.(.",
"  g c.8.4.>.+.-.-.' Y u <             (.(.(.(.(.",
"6 ! h.1.} ;.;.] $.^ c ` ^.^.^.^.^.^.^.5 (.(.(.(.",
"  q h.1.+.+.-.^ +.F U ~.Z.l.k.k.v.J.u.M   (.(.(.",
"(.2 Z p.-.' +.+.T N 4.^.~.Y.Y.Y.J.J.$.7   (.(.(.",
"(.  q f.$.] ' ^ D E ^.G.d.l.k.m.U.y.m *   (.(.(.",
"(.(.3 A y.+.] n G ^.~.~.~.C.N.U.J.R d . (.(.(.(.",
"(.(.  q u.+.V B 8.^.d.c.Z.U.U.Y.8.S # (.(.(.(.(.",
"(.(.(.4 z q.x ^ ^.^.~.G.l.a.T.J.Q y   (.(.(.(.(.",
"(.(.(.  8 ] W ^.Y.m.b.~.~.Y.~.r.P X (.(.(.(.(.(.",
"(.(.(.(.; i p m.^.^.^.n.m.!.Y. .t   (.(.(.(.(.(.",
"(.(.(.(.  w 1 | 6.e.Y.G.^.^.3.L . (.(.(.(.(.(.(.",
"(.(.(.(.(.  , > q s J I ..l._ d   (.(.(.(.(.(.(.",
"(.(.(.(.(.(.(.(.    - r t j h   (.(.(.(.(.(.(.(.",
"(.(.(.(.(.(.(.(.(.(.(.    , = (.(.(.(.(.(.(.(.(.",
"(.(.(.(.(.(.(.(.(.(.(.(.(.(.(.(.(.(.(.(.(.(.(.(.",
"(.(.(.(.(.(.(.(.(.(.(.(.(.(.(.(.(.(.(.(.(.(.(.(.",
"(.(.(.(.(.(.(.(.(.(.(.(.(.(.(.(.(.(.(.(.(.(.(.(."
};
