/* XPM */
static char *book_yellow[] = {
/* columns rows colors chars-per-pixel */
"24 24 177 2 ",
"   c black",
".  c #010100",
"X  c #020200",
"o  c #040300",
"O  c #070601",
"+  c #0B0801",
"@  c #151103",
"#  c #161203",
"$  c #1A1503",
"%  c #282005",
"&  c #2A2206",
"*  c #2C2306",
"=  c #2D2507",
"-  c #302606",
";  c #312807",
":  c #392E08",
">  c #3B3008",
",  c #3D3108",
"<  c gray20",
"1  c #413408",
"2  c #433609",
"3  c #493B0A",
"4  c #4D3E0A",
"5  c #5D4B0C",
"6  c #5E4C0D",
"7  c #604E0D",
"8  c #66520E",
"9  c #6C570F",
"0  c #6E590F",
"q  c #725C0F",
"w  c #695511",
"e  c #735D10",
"r  c #776010",
"t  c #7A6311",
"y  c #7E6515",
"u  c #484848",
"i  c #4B4B4B",
"p  c #565656",
"a  c #585858",
"s  c gray37",
"d  c #5F5F5F",
"f  c gray39",
"g  c #676767",
"h  c #6D6D6D",
"j  c gray43",
"k  c #747474",
"l  c gray47",
"z  c gray48",
"x  c #7E7E7E",
"c  c #836A12",
"v  c #856B12",
"b  c #826914",
"n  c #876E15",
"m  c #896E12",
"M  c #8A7013",
"N  c #8C7113",
"B  c #8E7213",
"V  c #907413",
"C  c #917514",
"Z  c #937714",
"A  c #947716",
"S  c #957814",
"D  c #977914",
"F  c #987B15",
"G  c #9A7C15",
"H  c #9C7E15",
"J  c #9E7F15",
"K  c #9C7F18",
"L  c #A18216",
"P  c #A38316",
"I  c #A58516",
"U  c #A68617",
"Y  c #A88817",
"T  c #AA8917",
"R  c #A58619",
"E  c #AD8C18",
"W  c #AF8D18",
"Q  c #AF8D1B",
"!  c #A8891E",
"~  c #B18F18",
"^  c #B39018",
"/  c #B49219",
"(  c #B69319",
")  c #B2901D",
"_  c #B6941E",
"`  c #B89419",
"'  c #BA9619",
"]  c #BB971A",
"[  c #BD991A",
"{  c #BF9A1A",
"}  c #A38621",
"|  c #B09020",
" . c #C19C1A",
".. c #C39D1A",
"X. c #C49E1B",
"o. c #C6A01B",
"O. c #C8A11B",
"+. c #CAA31B",
"@. c #CBA41C",
"#. c #CDA51C",
"$. c #CFA71C",
"%. c #D1A81C",
"&. c #D4AB1D",
"*. c #D6AD1D",
"=. c #D8AE1D",
"-. c #DBB11E",
";. c #DFB41E",
":. c #E1B726",
">. c #E1B82A",
",. c #E2BA31",
"<. c #E2BB33",
"1. c #E3BC34",
"2. c #E3BC36",
"3. c #E3BD38",
"4. c #E3BD3A",
"5. c #E4BE3B",
"6. c #E4BF3F",
"7. c #D6B644",
"8. c #E4C041",
"9. c #E4C043",
"0. c #E5C248",
"q. c #E5C34A",
"w. c #E7C652",
"e. c #E7C758",
"r. c #E8C85B",
"t. c #E8C95D",
"y. c #E8CA5F",
"u. c #E9CB62",
"i. c #EACC67",
"p. c #EACD69",
"a. c #E9CD6B",
"s. c #EACE6B",
"d. c #EACE6D",
"f. c #EBCF6E",
"g. c #ECD277",
"h. c #EDD47E",
"j. c #818181",
"k. c gray52",
"l. c #909090",
"z. c #959595",
"x. c gray59",
"c. c #979797",
"v. c gray65",
"b. c gray66",
"n. c #AFAFAF",
"m. c #B1B1B1",
"M. c gray71",
"N. c gray73",
"B. c #EDD580",
"V. c #EED685",
"C. c #EED88B",
"Z. c #F0DE9E",
"A. c gray76",
"S. c #C3C3C3",
"D. c #C5C5C5",
"F. c #CBCBCB",
"G. c #CECECE",
"H. c #D2D2D2",
"J. c #DADADA",
"K. c gray86",
"L. c gainsboro",
"P. c gray87",
"I. c #DFDFDF",
"U. c gray88",
"Y. c #E1E1E1",
"T. c #E2E2E2",
"R. c #E4E4E4",
"E. c gray90",
"W. c #E6E6E6",
"Q. c #EAEAEA",
"!. c gray92",
"~. c #EFEFEF",
"^. c gray95",
"/. c #F3F3F3",
"(. c #F9F9F9",
"). c #FDFDFD",
"_. c None",
/* pixels */
"_._._._._._._._._._._._._._._._._._._._._._._._.",
"_._._._._._._.                            _._._.",
"_._._._._._.% i.9.<.:.-.$...' ( ` ` `  .J & _._.",
"_._._._._.  <.y.3.+.] E J V m m V V F V q - _._.",
"_._._._._.# d.q.%.X./ U F m m m m m S r 4 _._._.",
"_._._._.  ' d.2.#.' E P C m m m m N F 0 8   _._.",
"_._._._.  d.q.&.o.( Y G N m m N m S r : j.6 _._.",
"_._._.  ' y.2.#.{ ~ P S m m m m M G 0 2 i l._._.",
"_._._.  p.q.&.+.' Y J N m m m m S t > p g < _._.",
"_._.  #.y.3.$. ./ U F m m m m m S e 3 i 6.  _._.",
"_._.  p.w.-.#.] E J V m m m m N c , g j t   _._.",
"_.  O.u.1.&...( U G N m m m m F 0 4 a 4.#   _._.",
"_.  7.e.>.#. .~ P S m m m m m v 1 i k K   _._._.",
"  #.Z.C.h.g.d.i.e.3.1.1.1.1.:.( 5 d 6.#   _._._.",
"O V.0 7 7 7 7 7 7 7 7 7 7 7 7 5 f l Y   _._._._.",
"$ 6.e d k x.m.n.D.G.N.A.S.F.H.J.x.<.*   _._._._.",
"# =.G x R.R.Y.I.I.^.)./././.b.M.j Y   _._._._._.",
"1 +.=.' U J.Q.~.~.W.P.Y.Y.I.Y.z 4.=   _._._._._.",
"_.  + y } | '  .c.P.W.!.(.(.k.v.r.  _._._._._._.",
"_._._.        b C ) _ [ B.U.Q.r.-   _._._._._._.",
"_._._._._._._.        w n U Q ! O _._._._._._._.",
"_._._._._._._._._._._.          _._._._._._._._.",
"_._._._._._._._._._._._._._._._._._._._._._._._.",
"_._._._._._._._._._._._._._._._._._._._._._._._."
};
