/* XPM */
static char *book_red[] = {
/* columns rows colors chars-per-pixel */
"24 24 175 2 ",
"   c black",
".  c #010000",
"X  c #020101",
"o  c #030201",
"O  c #060303",
"+  c #090504",
"@  c #110908",
"#  c #140B09",
"$  c #1F110E",
"%  c #21120F",
"&  c #221310",
"*  c #241411",
"=  c #251511",
"-  c #271612",
";  c #2C1814",
":  c #2D1915",
">  c #2F1A16",
",  c #321B17",
"<  c #341D18",
"1  c #381F1A",
"2  c #3B211B",
"3  c gray20",
"4  c #472721",
"5  c #492822",
"6  c #4A2923",
"7  c #4F2C25",
"8  c #542E27",
"9  c #532F28",
"0  c #552F28",
"q  c #583029",
"w  c #593129",
"e  c #5C332B",
"r  c #5F342C",
"t  c #66382F",
"y  c #633830",
"u  c #673930",
"i  c #663A31",
"p  c #693B31",
"a  c #6A3B32",
"s  c #6B3B32",
"d  c #6C3C33",
"f  c #6D3D33",
"g  c #6F3E34",
"h  c #703E34",
"j  c #713F35",
"k  c #734036",
"l  c #734137",
"z  c #744136",
"x  c #764137",
"c  c #774238",
"v  c #784338",
"b  c #7A4439",
"n  c #7A453A",
"m  c #7C453A",
"M  c #7E463B",
"N  c #7F473B",
"B  c #484848",
"V  c #4B4B4B",
"C  c #565656",
"Z  c #585858",
"A  c gray37",
"S  c #5F5F5F",
"D  c gray39",
"F  c #676767",
"G  c #6D6D6D",
"H  c gray43",
"J  c #747474",
"K  c gray47",
"L  c gray48",
"P  c #7E7E7E",
"I  c #81473C",
"U  c #81493D",
"Y  c #82483C",
"T  c #83493D",
"R  c #864A3E",
"E  c #884B3F",
"W  c #834D42",
"Q  c #854C41",
"!  c #894C40",
"~  c #8A4C40",
"^  c #894D42",
"/  c #8C4D41",
"(  c #8D4E42",
")  c #8C4F43",
"_  c #8E4F43",
"`  c #8F4F43",
"'  c #8C5145",
"]  c #8F5145",
"[  c #915044",
"{  c #925144",
"}  c #935245",
"|  c #955246",
" . c #965346",
".. c #985447",
"X. c #995548",
"o. c #9A5648",
"O. c #9C5749",
"+. c #9D5749",
"@. c #9F584A",
"#. c #A0594B",
"$. c #A15A4B",
"%. c #A45B4C",
"&. c #A55C4D",
"*. c #A75D4E",
"=. c #AA5E4F",
"-. c #AC6050",
";. c #B06657",
":. c #B16859",
">. c #B46D5F",
",. c #B46E60",
"<. c #B57062",
"1. c #B57163",
"2. c #B67265",
"3. c #B77366",
"4. c #B77467",
"5. c #B27468",
"6. c #B8776A",
"7. c #B9786B",
"8. c #BA796D",
"9. c #BC7D71",
"0. c #BD7E72",
"q. c #C08579",
"w. c #C2887D",
"e. c #818181",
"r. c gray52",
"t. c #909090",
"y. c #959595",
"u. c gray59",
"i. c #979797",
"p. c gray65",
"a. c gray66",
"s. c #AFAFAF",
"d. c #B1B1B1",
"f. c gray71",
"g. c gray73",
"h. c #C38B80",
"j. c #C38C81",
"k. c #C48D82",
"l. c #C59085",
"z. c #C79489",
"x. c #C8958B",
"c. c #C8968C",
"v. c #C9978D",
"b. c #CA998F",
"n. c #CD9F96",
"m. c #D0A39B",
"M. c #D0A59C",
"N. c #D2A8A0",
"B. c #D4ACA4",
"V. c #DBBAB4",
"C. c gray76",
"Z. c #C3C3C3",
"A. c #C5C5C5",
"S. c #CBCBCB",
"D. c #CECECE",
"F. c #D2D2D2",
"G. c #DADADA",
"H. c gray86",
"J. c gainsboro",
"K. c gray87",
"L. c #DFDFDF",
"P. c gray88",
"I. c #E1E1E1",
"U. c #E2E2E2",
"Y. c #E4E4E4",
"T. c gray90",
"R. c #E6E6E6",
"E. c #EAEAEA",
"W. c gray92",
"Q. c #EFEFEF",
"!. c gray95",
"~. c #F3F3F3",
"^. c #F9F9F9",
"/. c #FDFDFD",
"(. c None",
/* pixels */
"(.(.(.(.(.(.(.(.(.(.(.(.(.(.(.(.(.(.(.(.(.(.(.(.",
"(.(.(.(.(.(.(.                            (.(.(.",
"(.(.(.(.(.(.$ x.8.,.;.=.@.| ` ` ` ` ] | n % (.(.",
"(.(.(.(.(.  1.h.2.O.[ R n g p p h d x g q = (.(.",
"(.(.(.(.(.@ v.0.$.| ` I x p p p p p x r 2 (.(.(.",
"(.(.(.(.  ` v.1.@.[ R m h p p p p p x 7 7   (.(.",
"(.(.(.(.  v.0.%...` Y c d p p d p x e ; e.6 (.(.",
"(.(.(.  ` k.1.@.[ E m x p p p p s v 8 < V t.(.(.",
"(.(.(.  x.0.&...[ Y v d p p p p l e > C F 3 (.(.",
"(.(.  O.j.2.$.| ! Y x p p p p p x w 1 B 6.  (.(.",
"(.(.  b.q.-.@.[ R n d p p p p d t > F H e   (.(.",
"(.  ..l.>.%...` Y c d p p p p v 9 2 Z 4.@   (.(.",
"(.  5.w.:.$.{ E I z p u p p p u , V J n   (.(.(.",
"  $.V.B.m.n.b.z.w.2.1.1.1.1.:.E 6 A 7.@   (.(.(.",
"O N.8 6 6 6 6 6 6 6 6 6 6 6 6 5 D K Y   (.(.(.(.",
"# 6.w S J u.d.d.Z.S.g.C.Z.S.F.G.y.>.*   (.(.(.(.",
"@ &.x P Y.Y.I.L.P.!./.~.~.~.a.f.H Y   (.(.(.(.(.",
", o.=.[ m J.E.Q.Q.Y.L.P.P.P.I.L 4.*   (.(.(.(.(.",
"(.  + y W ] ` | i.J.R.W.^.^.r.p.w.  (.(.(.(.(.(.",
"(.(.(.        y l ] ] [ M.P.E.j.=   (.(.(.(.(.(.",
"(.(.(.(.(.(.(.        9 d Y ! Q O (.(.(.(.(.(.(.",
"(.(.(.(.(.(.(.(.(.(.(.          (.(.(.(.(.(.(.(.",
"(.(.(.(.(.(.(.(.(.(.(.(.(.(.(.(.(.(.(.(.(.(.(.(.",
"(.(.(.(.(.(.(.(.(.(.(.(.(.(.(.(.(.(.(.(.(.(.(.(."
};
