/* XPM */
static char *book_blue[] = {
/* columns rows colors chars-per-pixel */
"24 24 225 2 ",
"   c black",
".  c #000102",
"X  c #010203",
"o  c #010305",
"O  c #020709",
"+  c #04060A",
"@  c #0C0E0F",
"#  c #090D11",
"$  c #0A0D11",
"%  c #0A0E11",
"&  c #0D0F11",
"*  c #11161D",
"=  c #111822",
"-  c #141B21",
";  c #151B21",
":  c #151D24",
">  c #151C25",
",  c #17222C",
"<  c #18242D",
"1  c #19242D",
"2  c #1A2530",
"3  c #242527",
"4  c #21272E",
"5  c #232B32",
"6  c #262E33",
"7  c #232F36",
"8  c #2B353F",
"9  c #333334",
"0  c #32353B",
"q  c #353738",
"w  c #24364A",
"e  c #353C41",
"r  c #303E4D",
"t  c #2C3E51",
"y  c #293F56",
"u  c #33404F",
"i  c #2A425A",
"p  c #2D445C",
"a  c #2F465D",
"s  c #30475D",
"d  c #384A5D",
"f  c #3B4B5E",
"g  c #344B62",
"h  c #354C63",
"j  c #3D4E60",
"k  c #314E6B",
"l  c #324F6C",
"z  c #324F6D",
"x  c #33506B",
"c  c #33506E",
"v  c #34506D",
"b  c #34516F",
"n  c #35526E",
"m  c #36526F",
"M  c #355270",
"N  c #365371",
"B  c #385470",
"V  c #395571",
"C  c #385472",
"Z  c #395573",
"A  c #3B5772",
"S  c #3C5773",
"D  c #3A5775",
"F  c #3B5876",
"G  c #3D5974",
"H  c #3C5977",
"J  c #3D5A78",
"K  c #3F5B79",
"L  c #404145",
"P  c #46484A",
"I  c #4A4C4D",
"U  c #484C4E",
"Y  c gray34",
"T  c #545759",
"R  c #575859",
"E  c #445669",
"W  c #495869",
"Q  c #5B5E61",
"!  c #435B73",
"~  c #4F5F73",
"^  c #405C7A",
"/  c #415D7B",
"(  c #455D78",
")  c #425F7D",
"_  c #5F6060",
"`  c #5E6268",
"'  c #46607A",
"]  c #43607E",
"[  c #44617F",
"{  c #4D6278",
"}  c #4C637C",
"|  c #53657B",
" . c #556679",
".. c #54677D",
"X. c #54687F",
"o. c #5B6979",
"O. c #65696A",
"+. c #64686B",
"@. c #696D71",
"#. c #6D6F70",
"$. c #65707D",
"%. c #737576",
"&. c #747474",
"*. c #757777",
"=. c #77787A",
"-. c #466280",
";. c #476381",
":. c #486482",
">. c #496583",
",. c #4A6785",
"<. c #4B6886",
"1. c #4D6987",
"2. c #4E6A88",
"3. c #4F6B88",
"4. c #506982",
"5. c #536A82",
"6. c #556B80",
"7. c #546B83",
"8. c #566C83",
"9. c #566E86",
"0. c #576F86",
"q. c #506C8A",
"w. c #516D8B",
"e. c #576F88",
"r. c #536F8D",
"t. c #54708E",
"y. c #55718F",
"u. c #5E768F",
"i. c #567290",
"p. c #577391",
"a. c #587492",
"s. c #5A7593",
"d. c #5B7694",
"f. c #5C7896",
"g. c #5D7997",
"h. c #637281",
"j. c #657583",
"k. c #6B7B8B",
"l. c #697C8E",
"z. c #727A83",
"x. c #7D7E80",
"c. c #647C96",
"v. c #637E9B",
"b. c #7E8285",
"n. c #6C849C",
"m. c #708499",
"M. c #798C9F",
"N. c #7E8E9F",
"B. c #6C85A1",
"V. c #738AA3",
"C. c #768BA2",
"Z. c #718BA6",
"A. c #758DA6",
"S. c #768DA7",
"D. c #7B8FA1",
"F. c #7D93AC",
"G. c #7F96AF",
"H. c #81858A",
"J. c #858A8F",
"K. c #8B8F94",
"L. c #8B8F95",
"P. c #8E9092",
"I. c #87939D",
"U. c #8E9398",
"Y. c #909295",
"T. c gray59",
"R. c #90969B",
"E. c #8797A7",
"W. c #8096AE",
"Q. c #8097B0",
"!. c #879CB4",
"~. c #8A9FB6",
"^. c #9FA3A6",
"/. c #9CA2A8",
"(. c #8DA2B9",
"). c #8EA2B8",
"_. c #8FA3B9",
"`. c #90A0B0",
"'. c #91A5BC",
"]. c #97A8BE",
"[. c #9AAAB9",
"{. c #9BACBB",
"}. c #98ABBF",
"|. c #9EADBD",
" X c #A5A7A8",
".X c #A7A8AA",
"XX c #AFAFB0",
"oX c #B1B1B1",
"OX c #B2B5B9",
"+X c #99ACC0",
"@X c #A3B2C2",
"#X c #A7B6C6",
"$X c #ACB8C3",
"%X c #AEBECC",
"&X c #B4BBC1",
"*X c #B0BAC4",
"=X c #BCC2C9",
"-X c #BDC4CA",
";X c #BDC6D3",
":X c #C5C5C6",
">X c #CECECF",
",X c #C4CBD2",
"<X c #CBD2D9",
"1X c #D6DADE",
"2X c #DEDEDF",
"3X c #D6DCE1",
"4X c #D7DDE1",
"5X c #DFDFE0",
"6X c #DCE1E5",
"7X c #E1E1E1",
"8X c #E1E1E2",
"9X c #E1E2E3",
"0X c #E2E4E6",
"qX c #E5E6E7",
"wX c #E2E6E9",
"eX c #E7EAED",
"rX c #E8EBED",
"tX c #E9ECEE",
"yX c #EDEFF1",
"uX c #EDEFF2",
"iX c gray95",
"pX c #F1F3F5",
"aX c #F8F9FA",
"sX c #FDFDFE",
"dX c None",
/* pixels */
"dXdXdXdXdXdXdXdXdXdXdXdXdXdXdXdXdXdXdXdXdXdXdXdX",
"dXdXdXdXdXdXdX                            dXdXdX",
"dXdXdXdXdXdX* ].F.V.n.c.u.e.4.4.4.4.4.0.W = dXdX",
"dXdXdXdXdX  C._.A.i.2.-.J M k k B x H x u : dXdX",
"dXdXdXdXdX$ +XW.d.r.,.) D c k k k k H p 7 dXdXdX",
"dXdXdXdX  o.+XA.p.3.-.^ M k k k k x S y e   dXdX",
"dXdXdXdX  +XQ.f.r.1.[ F x k k x k B a , b.q dXdX",
"dXdXdX  o._.A.a.3.:.J D k k k k k S y 4 I P.dXdX",
"dXdXdX  +XQ.d.i.2.-.F b k k k k B a 1 T O.9 dXdX",
"dXdX  j.).S.d.w.,.^ D k k k k k S i 5 P Y.  dXdX",
"dXdX  {.!.v.i.2.-.J M k k k k x g 1 O.@.s   dXdX",
"dX  $.'.Z.d.r.1.) D c k k k k H y 6 R K.$   dXdX",
"dX  N.~.B.p.3.>.K N k k k k k g 2 U =.!   dXdXdX",
"  =.;X%X#X@X|.[.~.D.D.D.D.M.m. .0 Q U.$   dXdXdX",
"O *Xt w w w w w w w w w w w w e ` =.'   dXdXdXdX",
"& I.L _ &.T.oXXX:X>X&X-X&X,X<X1XR.J.;   dXdXdXdX",
"@ k.Y x.0X0X7X5X5XiXsXpXpXpX.XOX@.'   dXdXdXdXdX",
"3 h.l.7.( 3XrXyXyXqX2X7X7X5X9Xz.L.;   dXdXdXdXdX",
"dX  + d { X.4.0.E.4XwXtXaXaXH. X/.X dXdXdXdXdXdX",
"dXdXdX        f E ..7.8.$X6XrX^.:   dXdXdXdXdXdX",
"dXdXdXdXdXdXdX        r j ~  .} o dXdXdXdXdXdXdX",
"dXdXdXdXdXdXdXdXdXdXdX          dXdXdXdXdXdXdXdX",
"dXdXdXdXdXdXdXdXdXdXdXdXdXdXdXdXdXdXdXdXdXdXdXdX",
"dXdXdXdXdXdXdXdXdXdXdXdXdXdXdXdXdXdXdXdXdXdXdXdX"
};
