/* XPM */
static char *pig_xpm[] = {
/* columns rows colors chars-per-pixel */
"64 64 9 1",
" 	c None",
".	c #EE66EE",
"+	c #CC6666",
"@	c #663366",
"#	c #CC99CC",
"$	c #FF77FF",
"%	c #FF88FF",
"&	c #FF99FE",
"*	c #FFAAFF",
"                                                                ",
"                                                                ",
"                                                                ",
"                                                                ",
"                                                                ",
"                                                                ",
"                                                                ",
"                                                                ",
"                                                                ",
"                                                                ",
"                                                                ",
"                                                                ",
"                                                                ",
"                                                                ",
"                                                                ",
"                                                                ",
"                                &&&&%&%%%%%%                    ",
"                           *&&&&&%&&&&&%%%%%%%$$                ",
"                       ****&**&&$#++++++++##$$%%$$              ",
"          ***       ****&&*&&&&$#++++++++++#$$$$$$$$$           ",
"          *****   *****&**&&&&%$$##########$$%$$%$$$$$    $$$$  ",
"           **********&*&&&&&&&%$$&%%&&%%$$$$$$$$$$$$$$$ $$$$  $ ",
"           ***********&*&&&&%&%&%%%%%$%$%$$$$$$$$$$$$$$$$$ $    ",
"          *********&&*%*&&%&&&%&%%%%%$%$$%$$$$$$$$%$$$$$$$$     ",
"         *********&**&*%&%&&&%%%%%%$%%$$%$$$$$$%$$$$$$$$$       ",
"        **********&&&&&&&%%%&%&%%%%$%$%$$$$$$$$$$$$%$$%$$$      ",
"       **********&&&&&&&%&&%%%%%%%$%$%$%$$$$$$$$$$$$$$$$$$      ",
"       ********&**&&&%&&%%&%%%%%$%$$$$$$$$$$$$$$$$$$$$$$$$      ",
"      **********&&&&%&%%&%%%%$%$%$%%%$$$$%$$%$$$$$$$$$$$$$$     ",
"      *******&&&&&&&&&&%%%%%%%%$%$$$$$$$$$$$$$$$$$$%$$%$$$$     ",
"      *****&@%&&&%&%%%%%%%%$%$$$$$$$$$$$$$$$$$$$$$$$$$$$$$$     ",
"     ******@@@&&&&%&%%%%%%$%%%%$$$$$$$$$$$$$$$$$$$$$$$$%$$$     ",
"     ******&@%&&%%&%&%%%%%$%$$$%$$$$$$$$$%$$%$%$%$$$$$$$$$$     ",
"     ***&&&&&&%&&%%%%%%%$%$%$$$$$$$$$$%$$$$$$$$$$$$$$$$$%$$     ",
"    ****&&&&&%&%%%%%%%%%$%$$$$$$$%$$$$$$$$$$$$$$$$%$$$$$$$      ",
"   &*&&&&&&&&&%&%%%%%$%$$%%$$$$$$$$$$$$$$$$$$$$$$$$$$$$$$$      ",
"  **&&&&&&&%%%%%%%%%$%$%$$$$$$$$$$%$$$$$%$$%$$$$$$$$$$$$$$      ",
"  &*&&&&&&&%&%&%%%%$%$$$$$$$$$$$$$$$$$$$$$%$$$%$$$$$%$$$$       ",
"  *&*&&&%%%&%%%%%$%%$%$$$$%$$$$$%$$$$%$$$$$$$$%$$$$$$$$$$       ",
"   &&&&&&%%%%%%%$%$$$%$$$$$$$$$$$$$%$$$$$$$$%$$$$$$$$$$$        ",
"   &&&%%%&%%%%%$%%$%$$$$$$$$$%$$$$$$$$$$$$$$$$$$%$$$$%$$        ",
"    &&%&%%%%$%$%$$$$$$%$$$$$$$$$$$$$$$$$%$$$$$$%$$$$$$$$        ",
"        %%%%%%%$$$$$$$$$$$%$$$$$$$%$$%$$$$%$$$$$.$$$$$$$        ",
"           %$%$%$$.$$$$$$$$ $$%$$$$$%$$$%$.......$$$$$$$        ",
"               ......$$$$$$                ...... $$$$$$        ",
"               ..... $$$$$$                 ....   $$$$         ",
"               ..... $$$$$$                                     ",
"                ...  $$$%$                                      ",
"                      $$$                                       ",
"                                                                ",
"                                                                ",
"                                                                ",
"                                                                ",
"                                                                ",
"                                                                ",
"                                                                ",
"                                                                ",
"                                                                ",
"                                                                ",
"                                                                ",
"                                                                ",
"                                                                ",
"                                                                ",
"                                                                "];
