/* XPM */
static char * pig_s_xpm[] = {
"32 32 82 1",
" 	c None",
".	c #FF95FE",
"+	c #FF95FF",
"@	c #FF9DFF",
"#	c #FF98FF",
"$	c #FF8EFF",
"%	c #FF8AFF",
"&	c #FF87FF",
"*	c #FF74FF",
"=	c #FFAAFF",
"-	c #FFACFF",
";	c #FFA0FE",
">	c #FFA2FF",
",	c #FFA4FF",
"'	c #FF90FF",
")	c #D485BB",
"!	c #C95E53",
"~	c #C96056",
"{	c #C95F52",
"]	c #C491AB",
"^	c #FF72FF",
"/	c #FF82FF",
"(	c #FF76FF",
"_	c #FFA5FF",
":	c #FFA1FE",
"<	c #FF98FE",
"[	c #FF9BFE",
"}	c #FF7DFF",
"|	c #F489F7",
"1	c #E692EC",
"2	c #E69FEB",
"3	c #E694EC",
"4	c #E68AEC",
"5	c #F480F7",
"6	c #FF7CFF",
"7	c #FF77FF",
"8	c #FFA6FF",
"9	c #FFA8FF",
"0	c #FF99FE",
"a	c #FF94FE",
"b	c #FF92FE",
"c	c #FF89FF",
"d	c #FF80FF",
"e	c #FF81FF",
"f	c #FF9CFE",
"g	c #FF9DFE",
"h	c #FF99FF",
"i	c #FF91FE",
"j	c #FF8DFF",
"k	c #FF88FF",
"l	c #FF7EFF",
"m	c #FF86FF",
"n	c #FF7AFF",
"o	c #FFA7FF",
"p	c #FF84FF",
"q	c #FF7BFF",
"r	c #FEAAFE",
"s	c #FFA3FF",
"t	c #FF9AFE",
"u	c #FF96FE",
"v	c #FF83FF",
"w	c #FF7FFF",
"x	c #D987D8",
"y	c #793A79",
"z	c #FF85FF",
"A	c #FFABFF",
"B	c #D97BD8",
"C	c #FE95FE",
"D	c #FF8CFF",
"E	c #FF75FF",
"F	c #FF97FE",
"G	c #FF8FFF",
"H	c #FF9EFE",
"I	c #FF8BFF",
"J	c #FF78FF",
"K	c #FB73FB",
"L	c #F673F6",
"M	c #F66EF6",
"N	c #F76EF7",
"O	c #ED65ED",
"P	c #EE66EE",
"Q	c #F971F9",
"                                ",
"                                ",
"                                ",
"                                ",
"                                ",
"                                ",
"                                ",
"                                ",
"              . +@#$%& *        ",
"     =    =-;>,')!~~{]^/(       ",
"     === =_:,<[}|12345}(677 777 ",
"     ====89@0a.b&c6de(7((67777  ",
"    ====-fgh'i'jklmn6776(6(67   ",
"   ====_o<af%bkcpnqq(7(77(7(7   ",
"   ==r=s<tu%$kvwee676(6776(677  ",
"   ==xy@.im&clzq(777(7((((76(7  ",
"   A:,BC%DjcpdE6(7(66(666(7(67  ",
"  o><t.b&kvzdq776(7(((77(677(   ",
" oF0tGDjcvdq((77(6((6/(67(677   ",
" HH[Ij&clde((6((666(7(66(7(7    ",
"  tIDkvle6E67(6(7(((6((6676(    ",
"    kcpdJKJ((w(6(6e(6LMNM777    ",
"        OPQ777        PP 777    ",
"        PPJ(6                   ",
"           7                    ",
"                                ",
"                                ",
"                                ",
"                                ",
"                                ",
"                                ",
"                                "};
